<svg xmlns="http://www.w3.org/2000/svg" xmlns:xlink="http://www.w3.org/1999/xlink" width="500" zoomAndPan="magnify" viewBox="0 0 375 374.999991" height="500" preserveAspectRatio="xMidYMid meet" version="1.0"><defs><g/></defs><rect x="-37.5" width="450" fill="#ffffff" y="-37.499999" height="449.999989" fill-opacity="1"/><rect x="-37.5" width="450" fill="#ffffff" y="-37.499999" height="449.999989" fill-opacity="1"/><g fill="#000000" fill-opacity="1"><g transform="translate(139.464636, 303.717219)"><g><path d="M 30.90625 -20.90625 L 30.90625 -206.609375 C 30.90625 -213.898438 29.1875 -218.53125 25.75 -220.5 C 22.3125 -222.476562 16.847656 -223.46875 9.359375 -223.46875 L 9.359375 -227.53125 L 87.078125 -227.53125 L 87.078125 -223.46875 C 79.585938 -223.46875 74.070312 -222.476562 70.53125 -220.5 C 67 -218.53125 65.234375 -213.898438 65.234375 -206.609375 L 65.234375 -106.125 L 156.0625 -207.234375 C 161.050781 -212.234375 163.128906 -215.875 162.296875 -218.15625 C 161.460938 -220.445312 158.859375 -221.90625 154.484375 -222.53125 C 150.117188 -223.15625 145.128906 -223.46875 139.515625 -223.46875 L 139.515625 -227.53125 L 199.4375 -227.53125 L 199.4375 -223.46875 C 193.40625 -223.46875 188.304688 -223.101562 184.140625 -222.375 C 179.984375 -221.644531 176.132812 -220.1875 172.59375 -218 C 169.0625 -215.820312 165.210938 -212.335938 161.046875 -207.546875 L 81.453125 -118.296875 C 85.617188 -111.210938 90.5625 -105.898438 96.28125 -102.359375 C 102.007812 -98.828125 107.578125 -97.0625 112.984375 -97.0625 C 119.015625 -97.0625 124.21875 -98.9375 128.59375 -102.6875 L 184.765625 -20.90625 C 189.554688 -14.25 194.5 -9.773438 199.59375 -7.484375 C 204.6875 -5.203125 210.148438 -4.0625 215.984375 -4.0625 L 215.984375 0 L 182.265625 0 C 173.523438 0 166.242188 -1.816406 160.421875 -5.453125 C 154.597656 -9.097656 149.601562 -13.675781 145.4375 -19.1875 C 141.28125 -24.707031 137.117188 -30.273438 132.953125 -35.890625 L 78.34375 -115.171875 L 65.234375 -100.5 L 65.234375 -20.90625 C 65.234375 -13.832031 67 -9.253906 70.53125 -7.171875 C 74.070312 -5.097656 79.585938 -4.0625 87.078125 -4.0625 L 87.078125 0 L 9.359375 0 L 9.359375 -4.0625 C 16.847656 -4.0625 22.3125 -5.097656 25.75 -7.171875 C 29.1875 -9.253906 30.90625 -13.832031 30.90625 -20.90625 Z M 30.90625 -20.90625 "/></g></g></g><path stroke-linecap="butt" transform="matrix(1.976534, 0, 0, 1.976534, -4.499995, -8.089539)" fill="none" stroke-linejoin="miter" d="M 18.500267 155.000128 L 18.500267 152.899307 C 22.278978 152.899307 25.093249 152.357797 26.943078 151.274778 C 28.792907 150.191758 29.717822 147.812276 29.717822 144.140286 L 29.717822 47.506467 C 29.717822 43.727756 28.792907 41.322582 26.943078 40.292923 C 25.093249 39.261287 22.278978 38.747446 18.500267 38.747446 L 18.500267 36.646625 L 64.597777 36.646625 C 70.674941 36.646625 76.607833 36.950977 82.394479 37.557705 C 88.181125 38.138741 93.42626 39.407535 98.129886 41.362108 C 102.833512 43.318659 106.584555 46.211982 109.386967 50.044053 C 112.213095 53.874149 113.628136 59.040232 113.628136 65.540326 C 113.628136 71.935677 112.331674 77.087926 109.742704 80.99905 C 107.153733 84.884482 103.7189 87.856857 99.438206 89.918152 C 95.157511 91.951779 90.519103 93.325316 85.524959 94.038766 C 80.556508 94.752215 75.694777 95.109927 70.939767 95.109927 L 64.121485 95.109927 C 66.287525 98.465707 68.692698 100.922265 71.335029 102.481576 C 73.97736 104.040888 76.607833 104.819555 79.222496 104.819555 C 82.234398 104.819555 85.048668 103.80373 87.665307 101.768127 L 116.877195 144.140286 C 119.361421 147.600811 121.950391 149.926932 124.646083 151.114696 C 127.367466 152.304437 130.248931 152.899307 133.286525 152.899307 L 133.286525 155.000128 L 117.195381 155.000128 C 112.754605 155.000128 108.884984 154.061379 105.580588 152.185858 C 102.278168 150.282668 99.384845 147.905163 96.900619 145.051367 C 94.416393 142.171878 92.143633 139.264721 90.082338 136.331872 L 61.664928 95.109927 L 47.55405 95.109927 L 47.55405 144.140286 C 47.55405 147.812276 48.439439 150.191758 50.210215 151.274778 C 52.006684 152.357797 54.860481 152.899307 58.771605 152.899307 L 58.771605 155.000128 Z M 47.55405 92.96958 L 64.755882 92.96958 C 70.489167 92.96958 75.708611 92.216605 80.412237 90.710654 C 85.141555 89.204703 88.906432 86.481343 91.708844 82.544527 C 94.534972 78.582019 95.950013 72.965336 95.950013 65.700408 C 95.950013 56.927553 93.505313 50.241685 88.615914 45.642803 C 83.754183 41.045898 76.831157 38.747446 67.846836 38.747446 L 47.55405 38.747446 Z M 47.55405 92.96958 " stroke="#ffffff" stroke-width="16.641142" stroke-opacity="1" stroke-miterlimit="4"/><g fill="#000000" fill-opacity="1"><g transform="translate(22.430276, 298.273184)"><g><path d="M 9.625 0 L 9.625 -4.171875 C 17.113281 -4.171875 22.675781 -5.238281 26.3125 -7.375 C 29.945312 -9.519531 31.765625 -14.226562 31.765625 -21.5 L 31.765625 -212.421875 C 31.765625 -219.910156 29.945312 -224.671875 26.3125 -226.703125 C 22.675781 -228.734375 17.113281 -229.75 9.625 -229.75 L 9.625 -233.921875 L 100.765625 -233.921875 C 112.742188 -233.921875 124.453125 -233.332031 135.890625 -232.15625 C 147.335938 -230.988281 157.710938 -228.476562 167.015625 -224.625 C 176.328125 -220.769531 183.765625 -215.046875 189.328125 -207.453125 C 194.890625 -199.859375 197.671875 -189.644531 197.671875 -176.8125 C 197.671875 -164.1875 195.101562 -154.023438 189.96875 -146.328125 C 184.832031 -138.628906 178.039062 -132.742188 169.59375 -128.671875 C 161.144531 -124.609375 152 -121.878906 142.15625 -120.484375 C 132.3125 -119.097656 122.6875 -118.40625 113.28125 -118.40625 L 99.796875 -118.40625 C 104.078125 -111.78125 108.835938 -106.914062 114.078125 -103.8125 C 119.316406 -100.707031 124.503906 -99.15625 129.640625 -99.15625 C 135.628906 -99.15625 141.191406 -101.1875 146.328125 -105.25 L 204.09375 -21.5 C 209.007812 -14.65625 214.140625 -10.054688 219.484375 -7.703125 C 224.835938 -5.347656 230.507812 -4.171875 236.5 -4.171875 L 236.5 0 L 204.734375 0 C 195.960938 0 188.3125 -1.867188 181.78125 -5.609375 C 175.257812 -9.359375 169.535156 -14.066406 164.609375 -19.734375 C 159.691406 -25.398438 155.203125 -31.125 151.140625 -36.90625 L 94.984375 -118.40625 L 67.0625 -118.40625 L 67.0625 -21.5 C 67.0625 -14.226562 68.828125 -9.519531 72.359375 -7.375 C 75.890625 -5.238281 81.503906 -4.171875 89.203125 -4.171875 L 89.203125 0 Z M 67.0625 -122.578125 L 101.078125 -122.578125 C 112.421875 -122.578125 122.742188 -124.070312 132.046875 -127.0625 C 141.347656 -130.0625 148.78125 -135.460938 154.34375 -143.265625 C 159.90625 -151.078125 162.6875 -162.148438 162.6875 -176.484375 C 162.6875 -193.816406 157.875 -207.023438 148.25 -216.109375 C 138.625 -225.203125 124.929688 -229.75 107.171875 -229.75 L 67.0625 -229.75 Z M 67.0625 -122.578125 "/></g></g></g></svg>