<?xml version="1.0" standalone="no"?>
<!DOCTYPE svg PUBLIC "-//W3C//DTD SVG 20010904//EN"
 "http://www.w3.org/TR/2001/REC-SVG-20010904/DTD/svg10.dtd">
<svg version="1.0" xmlns="http://www.w3.org/2000/svg"
 width="500.000000pt" height="500.000000pt" viewBox="0 0 500.000000 500.000000"
 preserveAspectRatio="xMidYMid meet">

<g transform="translate(0.000000,500.000000) scale(0.100000,-0.100000)"
fill="#000000" stroke="none">
<path d="M430 4116 c0 -22 5 -24 89 -33 104 -12 150 -35 177 -91 18 -35 19
-95 22 -1402 l2 -1365 -22 -45 c-30 -60 -89 -89 -192 -97 -76 -6 -76 -6 -76
-34 l0 -29 530 0 530 0 0 30 c0 29 -1 30 -50 30 -75 0 -147 19 -182 48 -65 55
-63 26 -66 785 l-3 687 189 0 188 0 96 -137 c52 -76 220 -320 373 -543 400
-583 471 -673 600 -766 157 -111 255 -134 580 -134 l235 0 0 30 c0 28 -3 30
-35 30 -55 0 -136 20 -195 48 -91 43 -161 126 -386 452 -116 168 -291 422
-390 564 -98 143 -182 264 -185 269 -4 6 -21 1 -42 -12 -134 -83 -307 -66
-447 45 -53 41 -130 129 -130 148 0 3 60 6 133 6 338 1 598 45 772 132 261
131 385 338 385 642 0 419 -222 643 -720 730 -174 31 -324 36 -1047 36 l-733
0 0 -24z m1530 -51 c152 -34 294 -121 375 -228 133 -176 172 -507 89 -755 -68
-204 -208 -324 -449 -389 -97 -25 -111 -26 -442 -31 l-343 -4 0 709 c0 390 3
713 8 717 4 4 160 6 347 3 272 -4 355 -8 415 -22z"/>
<path d="M2942 3990 c16 -23 30 -30 55 -30 30 0 33 3 33 30 0 30 -1 30 -55 30
l-56 0 23 -30z"/>
<path d="M3730 3991 l0 -28 108 -5 c165 -8 217 -43 180 -122 -9 -17 -181 -215
-383 -441 -203 -225 -443 -493 -534 -595 -91 -102 -210 -233 -263 -292 l-98
-107 0 95 0 95 -46 -27 c-25 -15 -80 -42 -122 -60 -42 -19 -76 -39 -74 -45 1
-5 55 -87 120 -180 l117 -170 3 107 3 107 80 91 c45 50 86 91 92 91 5 0 170
-232 366 -516 587 -851 596 -861 764 -944 116 -56 180 -65 484 -65 l223 0 0
30 c0 29 -1 30 -49 30 -110 0 -238 63 -315 154 -24 28 -191 267 -371 531 -181
264 -351 512 -378 552 l-50 71 -56 -31 c-53 -30 -62 -32 -157 -32 -97 0 -103
1 -178 39 -80 41 -188 141 -221 207 -16 30 -16 32 7 58 14 14 175 195 358 401
620 696 739 827 779 862 86 73 196 108 344 108 l67 0 0 30 0 30 -400 0 -400 0
0 -29z"/>
<path d="M2271 1167 c-6 -16 -11 -32 -11 -36 0 -11 -51 -57 -80 -71 -13 -7
-61 -16 -105 -19 -77 -6 -80 -7 -80 -31 l0 -25 250 -2 250 -2 -60 53 c-33 30
-81 78 -107 107 l-47 53 -10 -27z"/>
</g>
</svg>
