<svg xmlns="http://www.w3.org/2000/svg" xmlns:xlink="http://www.w3.org/1999/xlink" width="500" zoomAndPan="magnify" viewBox="0 0 375 374.999991" height="500" preserveAspectRatio="xMidYMid meet" version="1.0"><defs><g/></defs><rect x="-37.5" width="450" fill="#ffffff" y="-37.499999" height="449.999989" fill-opacity="1"/><rect x="-37.5" width="450" fill="#000000" y="-37.499999" height="449.999989" fill-opacity="1"/><g fill="#ffffff" fill-opacity="1"><g transform="translate(165.427364, 248.261815)"><g><path d="M 19.078125 -12.90625 L 19.078125 -127.578125 C 19.078125 -132.078125 18.015625 -134.9375 15.890625 -136.15625 C 13.773438 -137.375 10.40625 -137.984375 5.78125 -137.984375 L 5.78125 -140.484375 L 53.765625 -140.484375 L 53.765625 -137.984375 C 49.140625 -137.984375 45.734375 -137.375 43.546875 -136.15625 C 41.367188 -134.9375 40.28125 -132.078125 40.28125 -127.578125 L 40.28125 -65.53125 L 96.359375 -127.96875 C 99.441406 -131.050781 100.722656 -133.296875 100.203125 -134.703125 C 99.691406 -136.117188 98.085938 -137.019531 95.390625 -137.40625 C 92.691406 -137.789062 89.609375 -137.984375 86.140625 -137.984375 L 86.140625 -140.484375 L 123.140625 -140.484375 L 123.140625 -137.984375 C 119.421875 -137.984375 116.273438 -137.757812 113.703125 -137.3125 C 111.128906 -136.863281 108.75 -135.960938 106.5625 -134.609375 C 104.382812 -133.265625 102.007812 -131.113281 99.4375 -128.15625 L 50.296875 -73.046875 C 52.867188 -68.671875 55.921875 -65.390625 59.453125 -63.203125 C 62.984375 -61.023438 66.421875 -59.9375 69.765625 -59.9375 C 73.492188 -59.9375 76.707031 -61.09375 79.40625 -63.40625 L 114.09375 -12.90625 C 117.039062 -8.800781 120.085938 -6.039062 123.234375 -4.625 C 126.390625 -3.207031 129.765625 -2.5 133.359375 -2.5 L 133.359375 0 L 112.546875 0 C 107.148438 0 102.648438 -1.125 99.046875 -3.375 C 95.453125 -5.625 92.367188 -8.445312 89.796875 -11.84375 C 87.234375 -15.25 84.664062 -18.6875 82.09375 -22.15625 L 48.375 -71.109375 L 40.28125 -62.0625 L 40.28125 -12.90625 C 40.28125 -8.539062 41.367188 -5.710938 43.546875 -4.421875 C 45.734375 -3.140625 49.140625 -2.5 53.765625 -2.5 L 53.765625 0 L 5.78125 0 L 5.78125 -2.5 C 10.40625 -2.5 13.773438 -3.140625 15.890625 -4.421875 C 18.015625 -5.710938 19.078125 -8.539062 19.078125 -12.90625 Z M 19.078125 -12.90625 "/></g></g></g><path stroke-linecap="butt" transform="matrix(1.220487, 0, 0, 1.220487, 79.530863, 48.97473)" fill="none" stroke-linejoin="miter" d="M 18.499595 154.998569 L 18.499595 152.898997 C 22.279465 152.898997 25.092764 152.358101 26.942691 151.273109 C 28.792619 150.191317 29.717583 147.813295 29.717583 144.139044 L 29.717583 47.50752 C 29.717583 43.72765 28.792619 41.324024 26.942691 40.293441 C 25.092764 39.262859 22.279465 38.747567 18.499595 38.747567 L 18.499595 36.644795 L 64.597364 36.644795 C 70.675241 36.644795 76.605892 36.948849 82.392518 37.556956 C 88.182344 38.13946 93.424873 39.406884 98.129707 41.362431 C 102.83454 43.317977 106.585605 46.21129 109.386102 50.042369 C 112.212202 53.873448 113.626853 59.039163 113.626853 65.539515 C 113.626853 71.934249 112.333824 77.087162 109.741364 80.998255 C 107.152106 84.883743 103.717897 87.85707 99.438739 89.918236 C 95.15638 91.950596 90.518758 93.32684 85.525873 94.040566 C 80.558593 94.754293 75.696931 95.109556 70.937688 95.109556 L 64.12048 95.109556 C 66.287264 98.466951 68.69409 100.921786 71.334558 102.480462 C 73.978227 104.042339 76.605892 104.820076 79.223956 104.820076 C 82.23569 104.820076 85.048989 103.802296 87.667053 101.769936 L 116.878629 144.139044 C 119.362269 147.602058 121.951528 149.92567 124.646406 151.116281 C 127.366888 152.303691 130.247398 152.898997 133.287937 152.898997 L 133.287937 154.998569 L 117.195485 154.998569 C 112.756299 154.998569 108.883612 154.060803 105.580627 152.18527 C 102.277642 150.284133 99.384329 147.906112 96.900689 145.051206 C 94.417049 142.170695 92.144646 139.26458 90.083481 136.332861 L 61.665645 95.109556 L 47.554344 95.109556 L 47.554344 144.139044 C 47.554344 147.813295 48.437701 150.191317 50.210815 151.273109 C 52.006333 152.358101 54.861239 152.898997 58.769131 152.898997 L 58.769131 154.998569 Z M 47.554344 92.968376 L 64.754192 92.968376 C 70.489609 92.968376 75.709734 92.216243 80.411367 90.708776 C 85.141805 89.204509 88.908873 86.480826 91.709369 82.544129 C 94.53547 78.581827 95.95012 72.964831 95.95012 65.699544 C 95.95012 56.926789 93.504887 50.240804 88.617621 45.64479 C 83.755959 41.045575 76.833133 38.747567 67.84594 38.747567 L 47.554344 38.747567 Z M 47.554344 92.968376 " stroke="#ffffff" stroke-width="16.641142" stroke-opacity="1" stroke-miterlimit="4"/><g fill="#ffffff" fill-opacity="1"><g transform="translate(96.159996, 238.150184)"><g><path d="M 5.9375 0 L 5.9375 -2.578125 C 10.5625 -2.578125 13.992188 -3.234375 16.234375 -4.546875 C 18.484375 -5.867188 19.609375 -8.78125 19.609375 -13.28125 L 19.609375 -131.171875 C 19.609375 -135.796875 18.484375 -138.734375 16.234375 -139.984375 C 13.992188 -141.242188 10.5625 -141.875 5.9375 -141.875 L 5.9375 -144.4375 L 62.21875 -144.4375 C 69.613281 -144.4375 76.84375 -144.070312 83.90625 -143.34375 C 90.976562 -142.625 97.382812 -141.070312 103.125 -138.6875 C 108.875 -136.3125 113.460938 -132.78125 116.890625 -128.09375 C 120.328125 -123.40625 122.046875 -117.097656 122.046875 -109.171875 C 122.046875 -101.378906 120.460938 -95.101562 117.296875 -90.34375 C 114.128906 -85.59375 109.9375 -81.960938 104.71875 -79.453125 C 99.5 -76.941406 93.847656 -75.253906 87.765625 -74.390625 C 81.691406 -73.535156 75.75 -73.109375 69.9375 -73.109375 L 61.625 -73.109375 C 64.257812 -69.015625 67.195312 -66.007812 70.4375 -64.09375 C 73.675781 -62.175781 76.878906 -61.21875 80.046875 -61.21875 C 83.742188 -61.21875 87.179688 -62.472656 90.359375 -64.984375 L 126.015625 -13.28125 C 129.054688 -9.050781 132.226562 -6.207031 135.53125 -4.75 C 138.832031 -3.300781 142.332031 -2.578125 146.03125 -2.578125 L 146.03125 0 L 126.40625 0 C 121 0 116.28125 -1.15625 112.25 -3.46875 C 108.21875 -5.78125 104.679688 -8.6875 101.640625 -12.1875 C 98.609375 -15.6875 95.835938 -19.21875 93.328125 -22.78125 L 58.65625 -73.109375 L 41.40625 -73.109375 L 41.40625 -13.28125 C 41.40625 -8.78125 42.492188 -5.867188 44.671875 -4.546875 C 46.859375 -3.234375 50.328125 -2.578125 55.078125 -2.578125 L 55.078125 0 Z M 41.40625 -75.6875 L 62.421875 -75.6875 C 69.421875 -75.6875 75.789062 -76.609375 81.53125 -78.453125 C 87.28125 -80.304688 91.867188 -83.644531 95.296875 -88.46875 C 98.734375 -93.289062 100.453125 -100.128906 100.453125 -108.984375 C 100.453125 -119.679688 97.476562 -127.835938 91.53125 -133.453125 C 85.59375 -139.066406 77.140625 -141.875 66.171875 -141.875 L 41.40625 -141.875 Z M 41.40625 -75.6875 "/></g></g></g></svg>