<?xml version="1.0" standalone="no"?>
<!DOCTYPE svg PUBLIC "-//W3C//DTD SVG 20010904//EN"
 "http://www.w3.org/TR/2001/REC-SVG-20010904/DTD/svg10.dtd">
<svg version="1.0" xmlns="http://www.w3.org/2000/svg"
 width="500.000000pt" height="500.000000pt" viewBox="0 0 500.000000 500.000000"
 preserveAspectRatio="xMidYMid meet">

<g transform="translate(0.000000,500.000000) scale(0.100000,-0.100000)"
fill="#000000" stroke="none">
<path d="M432 4118 c3 -21 11 -24 78 -30 41 -5 89 -13 107 -19 42 -14 90 -69
100 -116 10 -49 10 -2686 0 -2735 -9 -44 -47 -92 -89 -114 -16 -9 -67 -19
-111 -22 -73 -6 -82 -9 -85 -28 -3 -21 1 -21 235 -28 294 -9 796 -6 813 4 7 4
10 16 8 26 -3 16 -16 20 -79 25 -104 9 -162 36 -191 91 l-23 43 0 695 0 695
180 2 c99 2 185 0 191 -5 5 -4 53 -70 105 -147 52 -77 170 -248 261 -380 91
-132 220 -319 286 -415 188 -273 221 -318 307 -405 134 -136 263 -204 425
-224 90 -12 458 -15 484 -5 9 3 16 17 16 30 0 21 -5 24 -40 24 -59 0 -139 20
-195 48 -85 43 -169 141 -369 432 -166 241 -586 850 -592 858 -1 2 -26 -10
-56 -27 -29 -17 -77 -35 -106 -42 -103 -22 -238 21 -340 108 -58 49 -124 132
-116 145 3 5 98 8 212 8 498 0 805 112 972 355 99 144 135 378 91 590 -62 301
-285 475 -699 545 -193 32 -403 40 -1110 40 l-673 0 3 -22z m1455 -39 c297
-40 493 -206 560 -474 25 -100 25 -374 0 -465 -46 -170 -152 -309 -292 -381
-158 -82 -258 -98 -652 -106 l-313 -6 0 721 0 722 309 0 c170 0 345 -5 388
-11z"/>
<path d="M2972 3958 c22 -34 48 -35 48 -4 0 22 -4 26 -31 26 -30 0 -31 -1 -17
-22z"/>
<path d="M3724 3966 c-11 -28 7 -36 80 -36 92 0 174 -15 198 -37 27 -24 23
-74 -11 -119 -28 -38 -110 -130 -851 -954 -190 -211 -359 -399 -377 -419 l-32
-36 -1 108 0 109 -47 -28 c-27 -15 -79 -40 -116 -54 -38 -15 -69 -30 -69 -34
0 -5 51 -83 113 -174 l114 -166 3 83 3 84 82 91 c44 50 86 91 91 91 5 0 75
-94 154 -210 764 -1108 764 -1108 877 -1192 83 -62 175 -101 269 -113 39 -5
176 -10 304 -10 l232 0 0 23 c0 21 -6 24 -77 35 -107 16 -207 67 -270 135 -48
54 -133 175 -563 802 -128 187 -237 345 -244 352 -8 9 -26 5 -76 -20 -57 -28
-73 -32 -145 -31 -99 1 -171 27 -258 92 -59 46 -157 161 -157 185 0 7 183 217
406 467 224 250 466 523 539 605 255 290 302 320 520 334 91 5 100 8 100 26 0
20 -8 20 -393 23 -337 2 -393 0 -398 -12z"/>
<path d="M2270 1173 c0 -43 -41 -115 -76 -135 -17 -10 -70 -23 -118 -30 -81
-10 -86 -12 -86 -34 l0 -24 273 0 272 1 -40 31 c-22 17 -82 73 -132 125 -87
88 -93 92 -93 66z"/>
</g>
</svg>
